<?xml version="1.0" standalone="no"?>
<!DOCTYPE svg PUBLIC "-//W3C//DTD SVG 20010904//EN"
 "http://www.w3.org/TR/2001/REC-SVG-20010904/DTD/svg10.dtd">
<svg version="1.0" xmlns="http://www.w3.org/2000/svg"
 width="1000.000000pt" height="1000.000000pt" viewBox="0 0 1000.000000 1000.000000"
 preserveAspectRatio="xMidYMid meet">
<metadata>
Created by potrace 1.14, written by Peter Selinger 2001-2017
</metadata>
<g transform="translate(0.000000,1000.000000) scale(0.100000,-0.100000)"
fill="#000000" stroke="none">
<path d="M0 5000 l0 -5000 5000 0 5000 0 0 5000 0 5000 -5000 0 -5000 0 0
-5000z m6760 3749 c784 -62 1654 -336 2895 -912 128 -60 143 -70 173 -113 36
-52 36 -76 2 -145 -79 -155 -682 -546 -1115 -722 -334 -137 -497 -188 -760
-241 -795 -162 -1625 -80 -2445 239 -342 133 -745 351 -899 486 -24 22 -52 39
-62 39 -10 0 -33 -13 -51 -29 -32 -29 -33 -31 -30 -103 1 -40 13 -138 27 -218
13 -80 34 -203 45 -275 28 -175 72 -376 196 -905 180 -764 239 -1044 299
-1410 83 -516 105 -764 105 -1177 l0 -334 36 -15 c44 -18 87 -11 174 28 86 38
114 67 149 152 43 104 50 162 45 358 -5 173 -4 176 18 203 19 22 34 27 84 32
75 7 103 -9 136 -75 50 -102 15 -392 -68 -571 -60 -127 -258 -307 -376 -343
-23 -7 -64 -33 -95 -62 -86 -78 -111 -141 -143 -356 -51 -353 -81 -533 -100
-624 -83 -380 -230 -572 -465 -605 -136 -20 -278 17 -354 91 -45 43 -104 171
-137 294 -24 90 -26 111 -21 229 4 120 8 142 51 277 57 180 84 242 144 333 57
84 184 220 264 280 32 24 100 66 151 94 119 64 169 108 203 177 39 80 50 274
30 514 -9 96 -20 236 -26 310 -43 543 -120 977 -370 2065 -241 1048 -332 1537
-334 1795 -2 223 44 330 147 345 62 10 110 -7 207 -71 140 -93 560 -358 635
-401 452 -261 1038 -453 1585 -520 181 -22 669 -25 830 -5 573 71 1023 222
1565 526 137 77 181 115 195 167 20 74 -19 125 -124 165 -39 15 -127 51 -196
80 -942 395 -1651 596 -2308 655 -191 17 -603 6 -747 -19 -265 -47 -490 -128
-663 -238 -29 -19 -88 -67 -131 -108 -162 -151 -249 -206 -327 -206 -38 0 -51
5 -74 30 -33 36 -54 106 -45 151 25 119 178 260 451 416 418 239 940 326 1624
272z m-3307 -1263 c87 -17 170 -56 193 -91 24 -37 28 -95 10 -138 -27 -65
-103 -82 -236 -51 -96 21 -319 29 -436 15 -476 -59 -995 -297 -1564 -719 -144
-107 -380 -298 -502 -405 -51 -45 -118 -102 -148 -126 -149 -120 -228 -217
-216 -266 14 -55 361 -228 629 -314 320 -102 679 -132 972 -81 351 62 714 235
1041 496 117 93 392 367 484 481 81 101 140 138 207 130 54 -6 110 -54 119
-103 7 -38 -20 -106 -68 -167 -75 -97 -224 -261 -332 -364 -535 -515 -1113
-763 -1776 -763 -490 0 -964 144 -1435 435 -158 98 -209 141 -237 203 -33 73
-2 143 102 229 31 27 138 122 236 212 921 843 1742 1309 2454 1390 128 14 420
13 503 -3z"/>
<path d="M4740 2495 c-268 -141 -472 -436 -521 -751 -14 -95 -7 -143 27 -184
22 -26 32 -30 75 -30 67 0 120 29 196 106 113 115 212 360 282 699 39 191 42
205 33 205 -4 -1 -45 -21 -92 -45z"/>
</g>
</svg>
